<?xml version="1.0" encoding="UTF-8" standalone="no"?>
<!-- Created with Inkscape (http://www.inkscape.org/) -->

<svg
   width="1000"
   height="1000"
   viewBox="0 0 264.58333 264.58334"
   version="1.1"
   id="svg5"
   inkscape:version="1.1 (c68e22c387, 2021-05-23)"
   sodipodi:docname="Pomme.svg"
   inkscape:export-filename="C:\Users\thiba\Documents\ThePlanetShooter2\Image\Ball\Pomme.png"
   inkscape:export-xdpi="96"
   inkscape:export-ydpi="96"
   xmlns:inkscape="http://www.inkscape.org/namespaces/inkscape"
   xmlns:sodipodi="http://sodipodi.sourceforge.net/DTD/sodipodi-0.dtd"
   xmlns="http://www.w3.org/2000/svg"
   xmlns:svg="http://www.w3.org/2000/svg">
  <sodipodi:namedview
     id="namedview7"
     pagecolor="#505050"
     bordercolor="#eeeeee"
     borderopacity="1"
     inkscape:pageshadow="0"
     inkscape:pageopacity="0"
     inkscape:pagecheckerboard="0"
     inkscape:document-units="mm"
     showgrid="false"
     units="px"
     inkscape:snap-page="true"
     inkscape:zoom="0.47433593"
     inkscape:cx="585.02843"
     inkscape:cy="302.52821"
     inkscape:window-width="1920"
     inkscape:window-height="991"
     inkscape:window-x="-9"
     inkscape:window-y="-9"
     inkscape:window-maximized="1"
     inkscape:current-layer="layer1"
     inkscape:snap-object-midpoints="true"
     inkscape:snap-midpoints="true"
     inkscape:snap-bbox="true"
     inkscape:bbox-paths="true"
     inkscape:bbox-nodes="true"
     inkscape:snap-bbox-edge-midpoints="true"
     inkscape:snap-bbox-midpoints="true"
     inkscape:snap-intersection-paths="true"
     inkscape:snap-global="true" />
  <defs
     id="defs2" />
  <g
     inkscape:groupmode="layer"
     id="layer2"
     inkscape:label="Layer 2">
    <path
       style="fill:#00ae00;fill-opacity:1;stroke:none;stroke-width:0.264583px;stroke-linecap:butt;stroke-linejoin:miter;stroke-opacity:1"
       d="m 132.29132,7.7042113 c 0,0 -11.77849,-40.0863503 14.41988,-55.0437553 26.19837,-14.957407 74.06886,-25.560382 75.0922,-16.934625 1.02336,8.625758 -2.42977,31.81414 -14.85978,45.769318 -12.43001,13.9551823 -74.6523,26.2090623 -74.6523,26.2090623 z"
       id="path348" />
  </g>
  <g
     inkscape:groupmode="layer"
     id="layer3"
     inkscape:label="Layer 3">
    <path
       style="fill:#a3ae00;fill-opacity:1;stroke:none;stroke-width:0.426782px;stroke-linecap:butt;stroke-linejoin:miter;stroke-opacity:1"
       d="m 119.18665,9.2890389 c 0,0 -24.66865,-50.4414449 -46.937376,-60.5635889 -22.268719,-10.122149 -27.764102,1.873365 -30.141499,-9.222403 -0.659385,-3.077478 0,0 2.024428,-9.2224 1.340879,-6.108449 44.762371,12.146574 56.684017,24.967963 7.67224,8.251263 41.1634,51.9603533 39.58884,55.55934 -1.57455,3.598986 -21.21841,-1.5189111 -21.21841,-1.5189111 z"
       id="path2184"
       sodipodi:nodetypes="csssssc" />
  </g>
  <g
     inkscape:label="Layer 1"
     inkscape:groupmode="layer"
     id="layer1"
     style="display:inline">
    <path
       id="path134"
       style="fill:#ff0000;stroke-width:1.06371"
       d="M 423.36719,0 C 311.08322,3.1322265e-5 203.39812,52.678465 124.00138,146.44665 44.60463,240.21484 2.2456762e-6,367.39177 0,500 2.2456762e-6,632.60823 44.60463,759.78516 124.00138,853.55335 203.39812,947.32153 311.08322,999.99997 423.36719,1000 c 25.2091,-0.32195 50.34347,-27.54696 75.10351,-33.15067 25.76415,5.82207 51.93071,33.04806 78.16211,33.15067 112.28397,-3e-5 219.96907,-52.67847 299.36581,-146.44665 C 955.39537,759.78516 1000,632.60823 1000,500 1000,367.39177 955.39537,240.21484 875.99862,146.44665 796.60188,52.678465 688.91678,3.1322265e-5 576.63281,0 550.40141,0.10260588 524.23485,17.464941 498.4707,23.287013 473.71066,17.683306 448.57629,0.32195014 423.36719,0 Z"
       transform="scale(0.26458333)"
       sodipodi:nodetypes="cssscccsssccc" />
    <path
       style="fill:none;stroke:#800000;stroke-width:3;stroke-linecap:round;stroke-linejoin:miter;stroke-opacity:1;stroke-miterlimit:4;stroke-dasharray:none"
       d="m 132.29132,7.7042112 c 0,0 -36.217393,36.2434448 -25.65868,99.9506788"
       id="path6117"
       sodipodi:nodetypes="cc" />
  </g>
  <g
     inkscape:groupmode="layer"
     id="layer4"
     inkscape:label="Layer 4" />
</svg>
