<?xml version="1.0" encoding="UTF-8" standalone="no"?>
<!-- Created with Inkscape (http://www.inkscape.org/) -->

<svg
   width="1000"
   height="1000"
   viewBox="0 0 264.58333 264.58334"
   version="1.1"
   id="svg5"
   sodipodi:docname="hand.svg"
   inkscape:export-filename="C:\Users\thiba\Desktop\InkscapePortable\Data\settings\bitmap.png"
   inkscape:export-xdpi="96"
   inkscape:export-ydpi="96"
   inkscape:version="1.1 (c68e22c387, 2021-05-23)"
   xmlns:inkscape="http://www.inkscape.org/namespaces/inkscape"
   xmlns:sodipodi="http://sodipodi.sourceforge.net/DTD/sodipodi-0.dtd"
   xmlns="http://www.w3.org/2000/svg"
   xmlns:svg="http://www.w3.org/2000/svg">
  <sodipodi:namedview
     id="namedview7"
     pagecolor="#505050"
     bordercolor="#eeeeee"
     borderopacity="1"
     inkscape:pageshadow="0"
     inkscape:pageopacity="0"
     inkscape:pagecheckerboard="0"
     inkscape:document-units="mm"
     showgrid="false"
     units="px"
     inkscape:object-paths="true"
     inkscape:zoom="0.94867184"
     inkscape:cx="642.47717"
     inkscape:cy="656.18054"
     inkscape:window-width="1920"
     inkscape:window-height="991"
     inkscape:window-x="-9"
     inkscape:window-y="-9"
     inkscape:window-maximized="1"
     inkscape:current-layer="g4667"
     inkscape:snap-global="true" />
  <defs
     id="defs2">
    <inkscape:path-effect
       effect="clone_original"
       id="path-effect1727"
       is_visible="true"
       lpeversion="1"
       linkeditem=""
       method="d"
       attributes=""
       css_properties=""
       allow_transforms="true" />
    <inkscape:path-effect
       effect="offset"
       id="path-effect1725"
       is_visible="true"
       lpeversion="1"
       linejoin_type="miter"
       unit="mm"
       offset="0"
       miter_limit="6"
       attempt_force_join="false"
       update_on_knot_move="true" />
    <inkscape:path-effect
       effect="clone_original"
       id="path-effect1723"
       is_visible="true"
       lpeversion="1"
       linkeditem=""
       method="d"
       attributes=""
       css_properties=""
       allow_transforms="true" />
  </defs>
  <g
     inkscape:label="Layer 1"
     inkscape:groupmode="layer"
     id="layer1">
    <g
       id="g2091"
       transform="rotate(152.79453,136.47214,127.35702)">
      <g
         id="g4667"
         transform="rotate(27.01338,159.47598,89.945462)">
        <path
           id="path1729"
           style="fill:#ffffff;fill-opacity:1;stroke:#000000;stroke-width:28.857;stroke-linecap:round;stroke-linejoin:round;stroke-miterlimit:4;stroke-dasharray:none;stroke-opacity:1;paint-order:stroke fill markers"
           d="m 441.70703,99.0625 -13.2168,0.04492 c -18.4566,0.06188 -33.25578,17.91433 -33.18164,40.0293 l 1.6211,483.56836 -85.6211,-140.0957 c -13.009,-21.28569 -36.55324,-30.43368 -52.79101,-20.50977 l -18.22461,11.13867 c -16.23777,9.92391 -18.83713,35.0483 -5.82813,56.33399 l 74.61785,172.50321 65.28271,71.63957 c 13.009,21.28569 60.16976,17.34745 60.16976,17.34745 26.34089,1.14959 65.90129,-4.44396 87.82226,-4.51776 l 90.0586,-0.30078 90.05859,-0.30273 c 0,0 45.03832,2.95646 44.87695,-45.17969 l -1.40429,-418.89258 c -0.0836,-24.94609 -20.23361,-44.96254 -45.17969,-44.87891 -24.94609,0.0836 -69.82514,45.18165 -44.87891,45.18165 24.94623,0 -20.2336,-44.96255 -45.17969,-44.87891 -24.94608,0.0836 -69.82318,45.17969 -44.87695,45.17969 24.94623,0 -20.23555,-44.96059 -45.18164,-44.87696 -24.94609,0.0836 -44.96059,20.2336 -44.87695,45.17969 L 475.15625,138.86914 C 475.08211,116.75417 460.16363,99.000622 441.70703,99.0625 Z"
           transform="matrix(-0.26458185,-8.870412e-4,8.870412e-4,-0.26458185,292.01852,261.53759)"
           sodipodi:nodetypes="ccscscccccccccscszszsccc"
           inkscape:export-filename="C:\Users\thiba\Documents\ThePlanetShooter2\otherRes\UI\Hand.png"
           inkscape:export-xdpi="96"
           inkscape:export-ydpi="96" />
      </g>
    </g>
  </g>
</svg>
